<svg width="98" height="60" viewBox="0 0 98 60" fill="none" xmlns="http://www.w3.org/2000/svg">
<path fill-rule="evenodd" clip-rule="evenodd" d="M35.5882 7.64706V6.48639e-07L20.8824 0V14.4118L6.76471 14.4118V29.1176H0V36.7647H6.76471V60H14.4118V36.7647H20.8824V45.2941H28.5294V22.0588H35.2941V14.4118H28.5294V7.64706H35.5882ZM14.4118 22.0588H20.8824V29.1176H14.4118V22.0588Z" fill="#3CB27F"/>
<path fill-rule="evenodd" clip-rule="evenodd" d="M71.1765 12.3529H68.8235V31.4706H71.1765V12.3529ZM56.1765 17.9412H53.8235V29.1176V31.4706H56.1765H63.2353H65.5882V29.1176V17.9412H63.2353V29.1176L56.1765 29.1176V17.9412ZM92.0588 12.3529H94.4118V31.4706H92.0588V12.3529ZM44.1176 12.6471V18.5294H41.4706V20.8824H44.1176V31.4706H46.4706V20.8824H51.7647V18.5294L46.4706 18.5294V15L51.7647 15V12.6471H46.4706H44.1176ZM75.8824 12.6471L75.8824 15L75.8824 18.5294H73.2353V20.8824H75.8824V31.4706H78.2353V20.8824H83.5294V18.5294L78.2353 18.5294V15L83.5294 15V12.6471H78.2353H75.8824ZM88.5294 14.2647C88.5294 15.1581 87.8052 15.8824 86.9118 15.8824C86.0184 15.8824 85.2941 15.1581 85.2941 14.2647C85.2941 13.3713 86.0184 12.6471 86.9118 12.6471C87.8052 12.6471 88.5294 13.3713 88.5294 14.2647ZM85.5882 17.6471H87.9412V31.4706H85.5882V17.6471Z" fill="#193C3F"/>
<path d="M83.5941 34.4118C84.0814 34.4118 84.4764 34.0167 84.4764 33.5294C84.4764 33.0421 84.0814 32.6471 83.5941 32.6471C83.1068 32.6471 82.7117 33.0421 82.7117 33.5294C82.7117 34.0167 83.1068 34.4118 83.5941 34.4118Z" fill="#193C3F"/>
<path d="M84.1823 41.1765V35.2941H83.0059V41.1765H84.1823Z" fill="#193C3F"/>
<path fill-rule="evenodd" clip-rule="evenodd" d="M55.3531 36.1585V32.692H56.4076V41.1765H55.3531V40.1341C54.836 40.9341 54.0724 41.334 53.0623 41.334C52.2058 41.334 51.4826 41.027 50.8927 40.4129C50.2948 39.7907 49.9958 39.0351 49.9958 38.1463C49.9958 37.2656 50.2948 36.5141 50.8927 35.8919C51.4907 35.2697 52.2139 34.9586 53.0623 34.9586C54.0724 34.9586 54.836 35.3586 55.3531 36.1585ZM53.1956 40.3159C53.8098 40.3159 54.3229 40.1099 54.735 39.6978C55.1471 39.2695 55.3531 38.7523 55.3531 38.1463C55.3531 37.5322 55.1471 37.0191 54.735 36.607C54.3229 36.1868 53.8098 35.9767 53.1956 35.9767C52.5896 35.9767 52.0805 36.1868 51.6684 36.607C51.2563 37.0191 51.0503 37.5322 51.0503 38.1463C51.0503 38.7523 51.2563 39.2695 51.6684 39.6978C52.0805 40.1099 52.5896 40.3159 53.1956 40.3159Z" fill="#193C3F"/>
<path fill-rule="evenodd" clip-rule="evenodd" d="M49.0985 38.6311H44.0199C44.125 39.1644 44.3714 39.5846 44.7593 39.8917C45.1471 40.1906 45.632 40.3401 46.2138 40.3401C47.0137 40.3401 47.5955 40.0452 47.9591 39.4553L48.8561 39.9644C48.2581 40.8775 47.3693 41.334 46.1895 41.334C45.236 41.334 44.4522 41.0351 43.8381 40.4371C43.2402 39.823 42.9412 39.0594 42.9412 38.1463C42.9412 37.2251 43.2361 36.4656 43.826 35.8676C44.4159 35.2616 45.1795 34.9586 46.1168 34.9586C47.0056 34.9586 47.7288 35.2737 48.2864 35.904C48.852 36.5181 49.1348 37.2696 49.1348 38.1584C49.1348 38.3119 49.1227 38.4695 49.0985 38.6311ZM46.1168 35.9525C45.5592 35.9525 45.0906 36.11 44.7108 36.4252C44.3391 36.7403 44.1088 37.1686 44.0199 37.71H48.0682C47.9793 37.1524 47.7571 36.7201 47.4016 36.4131C47.046 36.106 46.6178 35.9525 46.1168 35.9525Z" fill="#193C3F"/>
<path d="M66.9483 41.334C66.0352 41.334 65.2756 41.031 64.6696 40.425C64.0636 39.8109 63.7606 39.0513 63.7606 38.1463C63.7606 37.2413 64.0636 36.4858 64.6696 35.8797C65.2756 35.2656 66.0352 34.9586 66.9483 34.9586C67.5462 34.9586 68.0836 35.104 68.5603 35.3949C69.0371 35.6777 69.3926 36.0615 69.627 36.5464L68.7422 37.0554C68.5886 36.7322 68.3502 36.4736 68.027 36.2797C67.7119 36.0858 67.3523 35.9888 66.9483 35.9888C66.3423 35.9888 65.8332 36.1949 65.4211 36.607C65.0171 37.0272 64.8151 37.5403 64.8151 38.1463C64.8151 38.7443 65.0171 39.2533 65.4211 39.6735C65.8332 40.0856 66.3423 40.2917 66.9483 40.2917C67.3523 40.2917 67.7159 40.1987 68.0392 40.0129C68.3624 39.8189 68.6088 39.5604 68.7785 39.2372L69.6754 39.7583C69.4088 40.2432 69.033 40.627 68.5482 40.9098C68.0634 41.1926 67.5301 41.334 66.9483 41.334Z" fill="#193C3F"/>
<path fill-rule="evenodd" clip-rule="evenodd" d="M75.6517 36.1585V35.1161H76.7062V41.1765H75.6517V40.1341C75.1345 40.9341 74.3709 41.334 73.3609 41.334C72.5044 41.334 71.7812 41.027 71.1913 40.4128C70.5933 39.7907 70.2944 39.0351 70.2944 38.1463C70.2944 37.2655 70.5933 36.5141 71.1913 35.8919C71.7892 35.2697 72.5124 34.9586 73.3609 34.9586C74.3709 34.9586 75.1345 35.3586 75.6517 36.1585ZM73.4942 40.3159C74.1083 40.3159 74.6214 40.1099 75.0335 39.6977C75.4456 39.2695 75.6517 38.7523 75.6517 38.1463C75.6517 37.5322 75.4456 37.0191 75.0335 36.607C74.6214 36.1868 74.1083 35.9767 73.4942 35.9767C72.8882 35.9767 72.3791 36.1868 71.967 36.607C71.5549 37.0191 71.3489 37.5322 71.3489 38.1463C71.3489 38.7523 71.5549 39.2695 71.967 39.6977C72.3791 40.1099 72.8882 40.3159 73.4942 40.3159Z" fill="#193C3F"/>
<path fill-rule="evenodd" clip-rule="evenodd" d="M88.1248 41.334C89.0217 41.334 89.7772 41.027 90.3913 40.4128C91.0135 39.7907 91.3246 39.0351 91.3246 38.1463C91.3246 37.2574 91.0135 36.5019 90.3913 35.8797C89.7772 35.2656 89.0217 34.9586 88.1248 34.9586C87.2278 34.9586 86.4723 35.2656 85.8582 35.8797C85.2441 36.4939 84.937 37.2494 84.937 38.1463C84.937 39.0432 85.2441 39.7988 85.8582 40.4128C86.4723 41.027 87.2278 41.334 88.1248 41.334ZM89.652 39.6856C89.2399 40.0977 88.7308 40.3038 88.1248 40.3038C87.5268 40.3038 87.0218 40.0977 86.6097 39.6856C86.1976 39.2735 85.9915 38.7604 85.9915 38.1463C85.9915 37.5322 86.1976 37.0191 86.6097 36.607C87.0218 36.1949 87.5268 35.9888 88.1248 35.9888C88.7308 35.9888 89.2399 36.1949 89.652 36.607C90.0641 37.0191 90.2701 37.5322 90.2701 38.1463C90.2701 38.7604 90.0641 39.2735 89.652 39.6856Z" fill="#193C3F"/>
<path d="M58.7731 35.2941H57.8013V41.1765H62.6606V35.2941H61.6887V40.2046H58.7731V35.2941Z" fill="#193C3F"/>
<path d="M78.7411 41.1765H82.1235V40.1471H79.7706V36.1765H82.1235V35.1471H79.7706V34.1176H78.7411V35.1471H77.7117V36.1765H78.7411V41.1765Z" fill="#193C3F"/>
<path d="M92.1235 35.2941V41.4706H93.1529V36.3235H96.2412V41.4706H97.2706V35.2941H92.1235Z" fill="#193C3F"/>
</svg>
