<svg width="28" height="28" viewBox="0 0 28 28" fill="none" xmlns="http://www.w3.org/2000/svg">
<circle cx="14" cy="14" r="14" fill="#19A852"/>
<path d="M15.106 16.64H13.576L13.18 11.6V8H15.52V11.6L15.106 16.64ZM14.35 18.116C14.722 18.116 15.04 18.248 15.304 18.512C15.568 18.776 15.7 19.094 15.7 19.466C15.7 19.838 15.568 20.156 15.304 20.42C15.04 20.684 14.722 20.816 14.35 20.816C13.978 20.816 13.66 20.684 13.396 20.42C13.132 20.156 13 19.838 13 19.466C13 19.094 13.126 18.776 13.378 18.512C13.642 18.248 13.966 18.116 14.35 18.116Z" fill="white"/>
</svg>
